<svg width="32" height="32" viewBox="0 0 32 32" fill="none" xmlns="http://www.w3.org/2000/svg">
<path d="M30 16C30 23.728 23.735 30 16 30C8.265 30 2 23.728 2 16C2 8.265 8.265 2 16 2C23.735 2 30 8.265 30 16Z" fill="url(#paint0_linear_1_13618)"/>
<path fill-rule="evenodd" clip-rule="evenodd" d="M13.831 8.54427C14.4729 8.19758 15.2126 8 16 8C16.7874 8 17.5271 8.19758 18.169 8.54427L18.6386 8.09012C18.7629 7.96996 18.9644 7.96996 19.0886 8.09012C19.2129 8.21028 19.2129 8.4051 19.0886 8.52526L18.7116 8.88982C19.7714 9.67728 20.4545 10.9153 20.4545 12.3077H11.5455C11.5455 10.9153 12.2286 9.67728 13.2884 8.88982L12.9114 8.52526C12.7871 8.4051 12.7871 8.21028 12.9114 8.09012C13.0356 7.96996 13.2371 7.96996 13.3614 8.09012L13.831 8.54427ZM14.7273 10.4615C14.7273 10.8014 14.4424 11.0769 14.0909 11.0769C13.7395 11.0769 13.4545 10.8014 13.4545 10.4615C13.4545 10.1217 13.7395 9.84615 14.0909 9.84615C14.4424 9.84615 14.7273 10.1217 14.7273 10.4615ZM17.9091 11.0769C18.2605 11.0769 18.5455 10.8014 18.5455 10.4615C18.5455 10.1217 18.2605 9.84615 17.9091 9.84615C17.5576 9.84615 17.2727 10.1217 17.2727 10.4615C17.2727 10.8014 17.5576 11.0769 17.9091 11.0769Z" fill="white"/>
<path d="M9 13.8462C9 13.3364 9.42736 12.9231 9.95455 12.9231C10.4817 12.9231 10.9091 13.3364 10.9091 13.8462V17.5385C10.9091 18.0483 10.4817 18.4615 9.95455 18.4615C9.42736 18.4615 9 18.0483 9 17.5385V13.8462Z" fill="white"/>
<path d="M13.4545 20.9231V23.0769C13.4545 23.5867 13.8819 24 14.4091 24C14.9363 24 15.3636 23.5867 15.3636 23.0769V20.9231H16.6364V23.0769C16.6364 23.5867 17.0637 24 17.5909 24C18.1181 24 18.5455 23.5867 18.5455 23.0769V20.9231H19.1818C19.8847 20.9231 20.4545 20.372 20.4545 19.6923V12.9231H11.5455V19.6923C11.5455 20.372 12.1153 20.9231 12.8182 20.9231H13.4545Z" fill="white"/>
<path d="M21.0909 13.8462C21.0909 13.3364 21.5183 12.9231 22.0455 12.9231C22.5726 12.9231 23 13.3364 23 13.8462V17.5385C23 18.0483 22.5726 18.4615 22.0455 18.4615C21.5183 18.4615 21.0909 18.0483 21.0909 17.5385V13.8462Z" fill="white"/>
<defs>
<linearGradient id="paint0_linear_1_13618" x1="2" y1="16" x2="30" y2="16" gradientUnits="userSpaceOnUse">
<stop stop-color="#19F9F2"/>
<stop offset="1" stop-color="#29D93B"/>
</linearGradient>
</defs>
</svg>
