<svg width="24" height="24" viewBox="0 0 24 24" fill="none" xmlns="http://www.w3.org/2000/svg">
<mask id="mask0_25_43" style="mask-type:alpha" maskUnits="userSpaceOnUse" x="0" y="0" width="24" height="24">
<rect width="24" height="24" fill="#D9D9D9"/>
</mask>
<g mask="url(#mask0_25_43)">
<path d="M12 21.9C11.8667 21.9 11.7417 21.875 11.625 21.825C11.5083 21.775 11.4 21.7 11.3 21.6L5.69999 16.025C5.51665 15.8417 5.42499 15.6083 5.42499 15.325C5.42499 15.0417 5.51665 14.8 5.69999 14.6C5.89999 14.4 6.13749 14.3 6.41249 14.3C6.68749 14.3 6.92499 14.4 7.12499 14.6L11 18.5V12.325C11 12.0417 11.0958 11.8042 11.2875 11.6125C11.4792 11.4208 11.7167 11.325 12 11.325C12.2833 11.325 12.5208 11.4208 12.7125 11.6125C12.9042 11.8042 13 12.0417 13 12.325V18.5L16.9 14.6C17.0833 14.4167 17.3125 14.325 17.5875 14.325C17.8625 14.325 18.1 14.425 18.3 14.625C18.4833 14.8083 18.575 15.0417 18.575 15.325C18.575 15.6083 18.4833 15.8417 18.3 16.025L12.7 21.6C12.6 21.7 12.4917 21.775 12.375 21.825C12.2583 21.875 12.1333 21.9 12 21.9ZM12 9.32501C11.7167 9.32501 11.4792 9.22918 11.2875 9.03751C11.0958 8.84585 11 8.60835 11 8.32501V7.32501C11 7.04168 11.0958 6.80418 11.2875 6.61251C11.4792 6.42085 11.7167 6.32501 12 6.32501C12.2833 6.32501 12.5208 6.42085 12.7125 6.61251C12.9042 6.80418 13 7.04168 13 7.32501V8.32501C13 8.60835 12.9042 8.84585 12.7125 9.03751C12.5208 9.22918 12.2833 9.32501 12 9.32501ZM12 4.32501C11.7167 4.32501 11.4792 4.22918 11.2875 4.03751C11.0958 3.84585 11 3.60835 11 3.32501C11 3.04168 11.0958 2.80418 11.2875 2.61251C11.4792 2.42085 11.7167 2.32501 12 2.32501C12.2833 2.32501 12.5208 2.42085 12.7125 2.61251C12.9042 2.80418 13 3.04168 13 3.32501C13 3.60835 12.9042 3.84585 12.7125 4.03751C12.5208 4.22918 12.2833 4.32501 12 4.32501Z" fill="url(#paint0_linear_25_43)"/>
</g>
<defs>
<linearGradient id="paint0_linear_25_43" x1="12" y1="2.32501" x2="12" y2="21.9" gradientUnits="userSpaceOnUse">
<stop stop-color="#19F9C3"/>
<stop offset="1" stop-color="#29D93B"/>
</linearGradient>
</defs>
</svg>
